%FSLAX45Y45*%
G04 Gerber Fmt 4.5, Leading zero omitted, Abs format (unit mm)*
G04 Created by KiCad (PCBNEW 4.0.7) date Mon Sep 25 09:44:31 2017*
%MOMM*%
%LPD*%
G01*
G04 APERTURE LIST*
%ADD10C,0.127000*%
%ADD11C,0.150000*%
%ADD12C,0.200000*%
%ADD13C,0.300000*%
G04 APERTURE END LIST*
D10*
D11*
X2032000Y-9906000D02*
X11811000Y-9906000D01*
X11811000Y-1651000D02*
X2032000Y-1651000D01*
X11811000Y-1651000D02*
X11811000Y-9906000D01*
X2032000Y-9906000D02*
X2032000Y-1651000D01*
X2032000Y-9906000D02*
X2032000Y-1651000D01*
D12*
X2246000Y-7580000D02*
X2326000Y-7660000D01*
X2326000Y-7580000D02*
X2246000Y-7660000D01*
X2246000Y-8850000D02*
X2326000Y-8930000D01*
X2326000Y-8850000D02*
X2246000Y-8930000D01*
X2627000Y-3706500D02*
X2707000Y-3786500D01*
X2707000Y-3706500D02*
X2627000Y-3786500D01*
X2627000Y-4214500D02*
X2707000Y-4294500D01*
X2707000Y-4214500D02*
X2627000Y-4294500D01*
X2627000Y-4722500D02*
X2707000Y-4802500D01*
X2707000Y-4722500D02*
X2627000Y-4802500D01*
X2627000Y-5230500D02*
X2707000Y-5310500D01*
X2707000Y-5230500D02*
X2627000Y-5310500D01*
X2627000Y-5738500D02*
X2707000Y-5818500D01*
X2707000Y-5738500D02*
X2627000Y-5818500D01*
X2627000Y-6246500D02*
X2707000Y-6326500D01*
X2707000Y-6246500D02*
X2627000Y-6326500D01*
X2627000Y-6754500D02*
X2707000Y-6834500D01*
X2707000Y-6754500D02*
X2627000Y-6834500D01*
X2627000Y-7262500D02*
X2707000Y-7342500D01*
X2707000Y-7262500D02*
X2627000Y-7342500D01*
X2627000Y-7770500D02*
X2707000Y-7850500D01*
X2707000Y-7770500D02*
X2627000Y-7850500D01*
X2627000Y-8278500D02*
X2707000Y-8358500D01*
X2707000Y-8278500D02*
X2627000Y-8358500D01*
X3897000Y-3706500D02*
X3977000Y-3786500D01*
X3977000Y-3706500D02*
X3897000Y-3786500D01*
X3897000Y-4214500D02*
X3977000Y-4294500D01*
X3977000Y-4214500D02*
X3897000Y-4294500D01*
X3897000Y-4722500D02*
X3977000Y-4802500D01*
X3977000Y-4722500D02*
X3897000Y-4802500D01*
X3897000Y-5230500D02*
X3977000Y-5310500D01*
X3977000Y-5230500D02*
X3897000Y-5310500D01*
X3897000Y-5738500D02*
X3977000Y-5818500D01*
X3977000Y-5738500D02*
X3897000Y-5818500D01*
X3897000Y-6246500D02*
X3977000Y-6326500D01*
X3977000Y-6246500D02*
X3897000Y-6326500D01*
X3897000Y-6754500D02*
X3977000Y-6834500D01*
X3977000Y-6754500D02*
X3897000Y-6834500D01*
X3897000Y-7262500D02*
X3977000Y-7342500D01*
X3977000Y-7262500D02*
X3897000Y-7342500D01*
X3897000Y-7770500D02*
X3977000Y-7850500D01*
X3977000Y-7770500D02*
X3897000Y-7850500D01*
X3897000Y-8278500D02*
X3977000Y-8358500D01*
X3977000Y-8278500D02*
X3897000Y-8358500D01*
X5103500Y-4913000D02*
X5183500Y-4993000D01*
X5183500Y-4913000D02*
X5103500Y-4993000D01*
X5103500Y-6183000D02*
X5183500Y-6263000D01*
X5183500Y-6183000D02*
X5103500Y-6263000D01*
X5865500Y-3071500D02*
X5945500Y-3151500D01*
X5945500Y-3071500D02*
X5865500Y-3151500D01*
X5865500Y-4341500D02*
X5945500Y-4421500D01*
X5945500Y-4341500D02*
X5865500Y-4421500D01*
X5865500Y-5484500D02*
X5945500Y-5564500D01*
X5945500Y-5484500D02*
X5865500Y-5564500D01*
X5865500Y-6754500D02*
X5945500Y-6834500D01*
X5945500Y-6754500D02*
X5865500Y-6834500D01*
X6310000Y-3897000D02*
X6390000Y-3977000D01*
X6390000Y-3897000D02*
X6310000Y-3977000D01*
X6373500Y-6310000D02*
X6453500Y-6390000D01*
X6453500Y-6310000D02*
X6373500Y-6390000D01*
X6373500Y-7580000D02*
X6453500Y-7660000D01*
X6453500Y-7580000D02*
X6373500Y-7660000D01*
X6564000Y-3897000D02*
X6644000Y-3977000D01*
X6644000Y-3897000D02*
X6564000Y-3977000D01*
X6564000Y-4532000D02*
X6644000Y-4612000D01*
X6644000Y-4532000D02*
X6564000Y-4612000D01*
X6564000Y-5802000D02*
X6644000Y-5882000D01*
X6644000Y-5802000D02*
X6564000Y-5882000D01*
X6818000Y-3897000D02*
X6898000Y-3977000D01*
X6898000Y-3897000D02*
X6818000Y-3977000D01*
X6945000Y-5167000D02*
X7025000Y-5247000D01*
X7025000Y-5167000D02*
X6945000Y-5247000D01*
X6945000Y-5417000D02*
X7025000Y-5497000D01*
X7025000Y-5417000D02*
X6945000Y-5497000D01*
X7262500Y-4405000D02*
X7342500Y-4485000D01*
X7342500Y-4405000D02*
X7262500Y-4485000D01*
X7262500Y-4659000D02*
X7342500Y-4739000D01*
X7342500Y-4659000D02*
X7262500Y-4739000D01*
X7262500Y-4913000D02*
X7342500Y-4993000D01*
X7342500Y-4913000D02*
X7262500Y-4993000D01*
X7262500Y-5167000D02*
X7342500Y-5247000D01*
X7342500Y-5167000D02*
X7262500Y-5247000D01*
X7262500Y-5421000D02*
X7342500Y-5501000D01*
X7342500Y-5421000D02*
X7262500Y-5501000D01*
X7262500Y-5675000D02*
X7342500Y-5755000D01*
X7342500Y-5675000D02*
X7262500Y-5755000D01*
X7262500Y-5929000D02*
X7342500Y-6009000D01*
X7342500Y-5929000D02*
X7262500Y-6009000D01*
X7326000Y-2627000D02*
X7406000Y-2707000D01*
X7406000Y-2627000D02*
X7326000Y-2707000D01*
X7326000Y-3897000D02*
X7406000Y-3977000D01*
X7406000Y-3897000D02*
X7326000Y-3977000D01*
X7707000Y-3897000D02*
X7787000Y-3977000D01*
X7787000Y-3897000D02*
X7707000Y-3977000D01*
X8024500Y-4405000D02*
X8104500Y-4485000D01*
X8104500Y-4405000D02*
X8024500Y-4485000D01*
X8024500Y-4659000D02*
X8104500Y-4739000D01*
X8104500Y-4659000D02*
X8024500Y-4739000D01*
X8024500Y-4913000D02*
X8104500Y-4993000D01*
X8104500Y-4913000D02*
X8024500Y-4993000D01*
X8024500Y-5167000D02*
X8104500Y-5247000D01*
X8104500Y-5167000D02*
X8024500Y-5247000D01*
X8024500Y-5421000D02*
X8104500Y-5501000D01*
X8104500Y-5421000D02*
X8024500Y-5501000D01*
X8024500Y-5675000D02*
X8104500Y-5755000D01*
X8104500Y-5675000D02*
X8024500Y-5755000D01*
X8024500Y-5929000D02*
X8104500Y-6009000D01*
X8104500Y-5929000D02*
X8024500Y-6009000D01*
X8151500Y-1996000D02*
X8231500Y-2076000D01*
X8231500Y-1996000D02*
X8151500Y-2076000D01*
X8151500Y-2246000D02*
X8231500Y-2326000D01*
X8231500Y-2246000D02*
X8151500Y-2326000D01*
X8342000Y-6373500D02*
X8422000Y-6453500D01*
X8422000Y-6373500D02*
X8342000Y-6453500D01*
X8342000Y-7643500D02*
X8422000Y-7723500D01*
X8422000Y-7643500D02*
X8342000Y-7723500D01*
X8532500Y-5421000D02*
X8612500Y-5501000D01*
X8612500Y-5421000D02*
X8532500Y-5501000D01*
X8596000Y-3135000D02*
X8676000Y-3215000D01*
X8676000Y-3135000D02*
X8596000Y-3215000D01*
X8596000Y-4405000D02*
X8676000Y-4485000D01*
X8676000Y-4405000D02*
X8596000Y-4485000D01*
X8850000Y-2182500D02*
X8930000Y-2262500D01*
X8930000Y-2182500D02*
X8850000Y-2262500D01*
X8850000Y-2432500D02*
X8930000Y-2512500D01*
X8930000Y-2432500D02*
X8850000Y-2512500D01*
X8977000Y-3897000D02*
X9057000Y-3977000D01*
X9057000Y-3897000D02*
X8977000Y-3977000D01*
X9294500Y-6945000D02*
X9374500Y-7025000D01*
X9374500Y-6945000D02*
X9294500Y-7025000D01*
X9294500Y-8215000D02*
X9374500Y-8295000D01*
X9374500Y-8215000D02*
X9294500Y-8295000D01*
X9802500Y-5421000D02*
X9882500Y-5501000D01*
X9882500Y-5421000D02*
X9802500Y-5501000D01*
X9866000Y-3135000D02*
X9946000Y-3215000D01*
X9946000Y-3135000D02*
X9866000Y-3215000D01*
X9866000Y-4405000D02*
X9946000Y-4485000D01*
X9946000Y-4405000D02*
X9866000Y-4485000D01*
X11072500Y-3516000D02*
X11152500Y-3596000D01*
X11152500Y-3516000D02*
X11072500Y-3596000D01*
X11072500Y-4786000D02*
X11152500Y-4866000D01*
X11152500Y-4786000D02*
X11072500Y-4866000D01*
X2331000Y-9525000D02*
G75*
G03X2331000Y-9525000I-45000J0D01*
G01*
X2585000Y-9525000D02*
G75*
G03X2585000Y-9525000I-45000J0D01*
G01*
X5125000Y-9525000D02*
G75*
G03X5125000Y-9525000I-45000J0D01*
G01*
X5379000Y-9525000D02*
G75*
G03X5379000Y-9525000I-45000J0D01*
G01*
X10014500Y-1968500D02*
G75*
G03X10014500Y-1968500I-45000J0D01*
G01*
X10014500Y-2730500D02*
G75*
G03X10014500Y-2730500I-45000J0D01*
G01*
X2667000Y-2998000D02*
X2667000Y-3098000D01*
X2617000Y-3048000D02*
X2717000Y-3048000D01*
X2921000Y-2998000D02*
X2921000Y-3098000D01*
X2871000Y-3048000D02*
X2971000Y-3048000D01*
X5905500Y-4649000D02*
X5905500Y-4749000D01*
X5855500Y-4699000D02*
X5955500Y-4699000D01*
X5905500Y-4903000D02*
X5905500Y-5003000D01*
X5855500Y-4953000D02*
X5955500Y-4953000D01*
X5905500Y-5157000D02*
X5905500Y-5257000D01*
X5855500Y-5207000D02*
X5955500Y-5207000D01*
X7175500Y-1982000D02*
X7175500Y-2082000D01*
X7125500Y-2032000D02*
X7225500Y-2032000D01*
X7345500Y-1982000D02*
X7345500Y-2082000D01*
X7295500Y-2032000D02*
X7395500Y-2032000D01*
X7515500Y-1982000D02*
X7515500Y-2082000D01*
X7465500Y-2032000D02*
X7565500Y-2032000D01*
X7685500Y-1982000D02*
X7685500Y-2082000D01*
X7635500Y-2032000D02*
X7735500Y-2032000D01*
X7855500Y-1982000D02*
X7855500Y-2082000D01*
X7805500Y-2032000D02*
X7905500Y-2032000D01*
X8826500Y-6363500D02*
X8826500Y-6463500D01*
X8776500Y-6413500D02*
X8876500Y-6413500D01*
X9080500Y-6363500D02*
X9080500Y-6463500D01*
X9030500Y-6413500D02*
X9130500Y-6413500D01*
X9207500Y-2172500D02*
X9207500Y-2272500D01*
X9157500Y-2222500D02*
X9257500Y-2222500D01*
X9334500Y-6363500D02*
X9334500Y-6463500D01*
X9284500Y-6413500D02*
X9384500Y-6413500D01*
X9461500Y-2172500D02*
X9461500Y-2272500D01*
X9411500Y-2222500D02*
X9511500Y-2222500D01*
X9969500Y-3887000D02*
X9969500Y-3987000D01*
X9919500Y-3937000D02*
X10019500Y-3937000D01*
X10223500Y-3887000D02*
X10223500Y-3987000D01*
X10173500Y-3937000D02*
X10273500Y-3937000D01*
X10223500Y-4776000D02*
X10223500Y-4876000D01*
X10173500Y-4826000D02*
X10273500Y-4826000D01*
X10477500Y-3887000D02*
X10477500Y-3987000D01*
X10427500Y-3937000D02*
X10527500Y-3937000D01*
X10477500Y-4776000D02*
X10477500Y-4876000D01*
X10427500Y-4826000D02*
X10527500Y-4826000D01*
X10731500Y-4776000D02*
X10731500Y-4876000D01*
X10681500Y-4826000D02*
X10781500Y-4826000D01*
D13*
X2295929Y-10379214D02*
X2295929Y-10079214D01*
X2367357Y-10079214D01*
X2410214Y-10093500D01*
X2438786Y-10122072D01*
X2453071Y-10150643D01*
X2467357Y-10207786D01*
X2467357Y-10250643D01*
X2453071Y-10307786D01*
X2438786Y-10336357D01*
X2410214Y-10364929D01*
X2367357Y-10379214D01*
X2295929Y-10379214D01*
X2595929Y-10379214D02*
X2595929Y-10179214D01*
X2595929Y-10236357D02*
X2610214Y-10207786D01*
X2624500Y-10193500D01*
X2653071Y-10179214D01*
X2681643Y-10179214D01*
X2781643Y-10379214D02*
X2781643Y-10179214D01*
X2781643Y-10079214D02*
X2767357Y-10093500D01*
X2781643Y-10107786D01*
X2795929Y-10093500D01*
X2781643Y-10079214D01*
X2781643Y-10107786D01*
X2967357Y-10379214D02*
X2938786Y-10364929D01*
X2924500Y-10336357D01*
X2924500Y-10079214D01*
X3124500Y-10379214D02*
X3095928Y-10364929D01*
X3081643Y-10336357D01*
X3081643Y-10079214D01*
X3467357Y-10379214D02*
X3467357Y-10079214D01*
X3567357Y-10293500D01*
X3667357Y-10079214D01*
X3667357Y-10379214D01*
X3938786Y-10379214D02*
X3938786Y-10222072D01*
X3924500Y-10193500D01*
X3895928Y-10179214D01*
X3838786Y-10179214D01*
X3810214Y-10193500D01*
X3938786Y-10364929D02*
X3910214Y-10379214D01*
X3838786Y-10379214D01*
X3810214Y-10364929D01*
X3795928Y-10336357D01*
X3795928Y-10307786D01*
X3810214Y-10279214D01*
X3838786Y-10264929D01*
X3910214Y-10264929D01*
X3938786Y-10250643D01*
X4081643Y-10179214D02*
X4081643Y-10479214D01*
X4081643Y-10193500D02*
X4110214Y-10179214D01*
X4167357Y-10179214D01*
X4195929Y-10193500D01*
X4210214Y-10207786D01*
X4224500Y-10236357D01*
X4224500Y-10322072D01*
X4210214Y-10350643D01*
X4195929Y-10364929D01*
X4167357Y-10379214D01*
X4110214Y-10379214D01*
X4081643Y-10364929D01*
X4353071Y-10350643D02*
X4367357Y-10364929D01*
X4353071Y-10379214D01*
X4338786Y-10364929D01*
X4353071Y-10350643D01*
X4353071Y-10379214D01*
X4353071Y-10193500D02*
X4367357Y-10207786D01*
X4353071Y-10222072D01*
X4338786Y-10207786D01*
X4353071Y-10193500D01*
X4353071Y-10222072D01*
X1944500Y-10833500D02*
X2024500Y-10913500D01*
X2024500Y-10833500D02*
X1944500Y-10913500D01*
X2353071Y-10709214D02*
X2381643Y-10709214D01*
X2410214Y-10723500D01*
X2424500Y-10737786D01*
X2438786Y-10766357D01*
X2453071Y-10823500D01*
X2453071Y-10894929D01*
X2438786Y-10952072D01*
X2424500Y-10980643D01*
X2410214Y-10994929D01*
X2381643Y-11009214D01*
X2353071Y-11009214D01*
X2324500Y-10994929D01*
X2310214Y-10980643D01*
X2295929Y-10952072D01*
X2281643Y-10894929D01*
X2281643Y-10823500D01*
X2295929Y-10766357D01*
X2310214Y-10737786D01*
X2324500Y-10723500D01*
X2353071Y-10709214D01*
X2581643Y-10980643D02*
X2595929Y-10994929D01*
X2581643Y-11009214D01*
X2567357Y-10994929D01*
X2581643Y-10980643D01*
X2581643Y-11009214D01*
X2767357Y-10837786D02*
X2738786Y-10823500D01*
X2724500Y-10809214D01*
X2710214Y-10780643D01*
X2710214Y-10766357D01*
X2724500Y-10737786D01*
X2738786Y-10723500D01*
X2767357Y-10709214D01*
X2824500Y-10709214D01*
X2853071Y-10723500D01*
X2867357Y-10737786D01*
X2881643Y-10766357D01*
X2881643Y-10780643D01*
X2867357Y-10809214D01*
X2853071Y-10823500D01*
X2824500Y-10837786D01*
X2767357Y-10837786D01*
X2738786Y-10852072D01*
X2724500Y-10866357D01*
X2710214Y-10894929D01*
X2710214Y-10952072D01*
X2724500Y-10980643D01*
X2738786Y-10994929D01*
X2767357Y-11009214D01*
X2824500Y-11009214D01*
X2853071Y-10994929D01*
X2867357Y-10980643D01*
X2881643Y-10952072D01*
X2881643Y-10894929D01*
X2867357Y-10866357D01*
X2853071Y-10852072D01*
X2824500Y-10837786D01*
X3067357Y-10709214D02*
X3095928Y-10709214D01*
X3124500Y-10723500D01*
X3138786Y-10737786D01*
X3153071Y-10766357D01*
X3167357Y-10823500D01*
X3167357Y-10894929D01*
X3153071Y-10952072D01*
X3138786Y-10980643D01*
X3124500Y-10994929D01*
X3095928Y-11009214D01*
X3067357Y-11009214D01*
X3038786Y-10994929D01*
X3024500Y-10980643D01*
X3010214Y-10952072D01*
X2995928Y-10894929D01*
X2995928Y-10823500D01*
X3010214Y-10766357D01*
X3024500Y-10737786D01*
X3038786Y-10723500D01*
X3067357Y-10709214D01*
X3295928Y-11009214D02*
X3295928Y-10809214D01*
X3295928Y-10837786D02*
X3310214Y-10823500D01*
X3338786Y-10809214D01*
X3381643Y-10809214D01*
X3410214Y-10823500D01*
X3424500Y-10852072D01*
X3424500Y-11009214D01*
X3424500Y-10852072D02*
X3438786Y-10823500D01*
X3467357Y-10809214D01*
X3510214Y-10809214D01*
X3538786Y-10823500D01*
X3553071Y-10852072D01*
X3553071Y-11009214D01*
X3695928Y-11009214D02*
X3695928Y-10809214D01*
X3695928Y-10837786D02*
X3710214Y-10823500D01*
X3738786Y-10809214D01*
X3781643Y-10809214D01*
X3810214Y-10823500D01*
X3824500Y-10852072D01*
X3824500Y-11009214D01*
X3824500Y-10852072D02*
X3838786Y-10823500D01*
X3867357Y-10809214D01*
X3910214Y-10809214D01*
X3938786Y-10823500D01*
X3953071Y-10852072D01*
X3953071Y-11009214D01*
X4538786Y-10694929D02*
X4281643Y-11080643D01*
X4924500Y-10709214D02*
X4953071Y-10709214D01*
X4981643Y-10723500D01*
X4995928Y-10737786D01*
X5010214Y-10766357D01*
X5024500Y-10823500D01*
X5024500Y-10894929D01*
X5010214Y-10952072D01*
X4995928Y-10980643D01*
X4981643Y-10994929D01*
X4953071Y-11009214D01*
X4924500Y-11009214D01*
X4895928Y-10994929D01*
X4881643Y-10980643D01*
X4867357Y-10952072D01*
X4853071Y-10894929D01*
X4853071Y-10823500D01*
X4867357Y-10766357D01*
X4881643Y-10737786D01*
X4895928Y-10723500D01*
X4924500Y-10709214D01*
X5153071Y-10980643D02*
X5167357Y-10994929D01*
X5153071Y-11009214D01*
X5138786Y-10994929D01*
X5153071Y-10980643D01*
X5153071Y-11009214D01*
X5353071Y-10709214D02*
X5381643Y-10709214D01*
X5410214Y-10723500D01*
X5424500Y-10737786D01*
X5438786Y-10766357D01*
X5453071Y-10823500D01*
X5453071Y-10894929D01*
X5438786Y-10952072D01*
X5424500Y-10980643D01*
X5410214Y-10994929D01*
X5381643Y-11009214D01*
X5353071Y-11009214D01*
X5324500Y-10994929D01*
X5310214Y-10980643D01*
X5295928Y-10952072D01*
X5281643Y-10894929D01*
X5281643Y-10823500D01*
X5295928Y-10766357D01*
X5310214Y-10737786D01*
X5324500Y-10723500D01*
X5353071Y-10709214D01*
X5553071Y-10709214D02*
X5738785Y-10709214D01*
X5638785Y-10823500D01*
X5681643Y-10823500D01*
X5710214Y-10837786D01*
X5724500Y-10852072D01*
X5738785Y-10880643D01*
X5738785Y-10952072D01*
X5724500Y-10980643D01*
X5710214Y-10994929D01*
X5681643Y-11009214D01*
X5595928Y-11009214D01*
X5567357Y-10994929D01*
X5553071Y-10980643D01*
X6024500Y-11009214D02*
X5853071Y-11009214D01*
X5938785Y-11009214D02*
X5938785Y-10709214D01*
X5910214Y-10752072D01*
X5881643Y-10780643D01*
X5853071Y-10794929D01*
X6138786Y-10709214D02*
X6138786Y-10766357D01*
X6253071Y-10709214D02*
X6253071Y-10766357D01*
X6695928Y-11123500D02*
X6681643Y-11109214D01*
X6653071Y-11066357D01*
X6638785Y-11037786D01*
X6624500Y-10994929D01*
X6610214Y-10923500D01*
X6610214Y-10866357D01*
X6624500Y-10794929D01*
X6638785Y-10752072D01*
X6653071Y-10723500D01*
X6681643Y-10680643D01*
X6695928Y-10666357D01*
X6781643Y-10709214D02*
X6981643Y-10709214D01*
X6853071Y-11009214D01*
X7253071Y-11009214D02*
X7081643Y-11009214D01*
X7167357Y-11009214D02*
X7167357Y-10709214D01*
X7138785Y-10752072D01*
X7110214Y-10780643D01*
X7081643Y-10794929D01*
X7610214Y-11009214D02*
X7610214Y-10709214D01*
X7738785Y-11009214D02*
X7738785Y-10852072D01*
X7724500Y-10823500D01*
X7695928Y-10809214D01*
X7653071Y-10809214D01*
X7624500Y-10823500D01*
X7610214Y-10837786D01*
X7924500Y-11009214D02*
X7895928Y-10994929D01*
X7881643Y-10980643D01*
X7867357Y-10952072D01*
X7867357Y-10866357D01*
X7881643Y-10837786D01*
X7895928Y-10823500D01*
X7924500Y-10809214D01*
X7967357Y-10809214D01*
X7995928Y-10823500D01*
X8010214Y-10837786D01*
X8024500Y-10866357D01*
X8024500Y-10952072D01*
X8010214Y-10980643D01*
X7995928Y-10994929D01*
X7967357Y-11009214D01*
X7924500Y-11009214D01*
X8195928Y-11009214D02*
X8167357Y-10994929D01*
X8153071Y-10966357D01*
X8153071Y-10709214D01*
X8424500Y-10994929D02*
X8395929Y-11009214D01*
X8338786Y-11009214D01*
X8310214Y-10994929D01*
X8295928Y-10966357D01*
X8295928Y-10852072D01*
X8310214Y-10823500D01*
X8338786Y-10809214D01*
X8395929Y-10809214D01*
X8424500Y-10823500D01*
X8438786Y-10852072D01*
X8438786Y-10880643D01*
X8295928Y-10909214D01*
X8553071Y-10994929D02*
X8581643Y-11009214D01*
X8638786Y-11009214D01*
X8667357Y-10994929D01*
X8681643Y-10966357D01*
X8681643Y-10952072D01*
X8667357Y-10923500D01*
X8638786Y-10909214D01*
X8595929Y-10909214D01*
X8567357Y-10894929D01*
X8553071Y-10866357D01*
X8553071Y-10852072D01*
X8567357Y-10823500D01*
X8595929Y-10809214D01*
X8638786Y-10809214D01*
X8667357Y-10823500D01*
X8781643Y-11123500D02*
X8795929Y-11109214D01*
X8824500Y-11066357D01*
X8838786Y-11037786D01*
X8853071Y-10994929D01*
X8867357Y-10923500D01*
X8867357Y-10866357D01*
X8853071Y-10794929D01*
X8838786Y-10752072D01*
X8824500Y-10723500D01*
X8795929Y-10680643D01*
X8781643Y-10666357D01*
X2024500Y-11269500D02*
G75*
G03X2024500Y-11269500I-45000J0D01*
G01*
X2353071Y-11105214D02*
X2381643Y-11105214D01*
X2410214Y-11119500D01*
X2424500Y-11133786D01*
X2438786Y-11162357D01*
X2453071Y-11219500D01*
X2453071Y-11290929D01*
X2438786Y-11348071D01*
X2424500Y-11376643D01*
X2410214Y-11390929D01*
X2381643Y-11405214D01*
X2353071Y-11405214D01*
X2324500Y-11390929D01*
X2310214Y-11376643D01*
X2295929Y-11348071D01*
X2281643Y-11290929D01*
X2281643Y-11219500D01*
X2295929Y-11162357D01*
X2310214Y-11133786D01*
X2324500Y-11119500D01*
X2353071Y-11105214D01*
X2581643Y-11376643D02*
X2595929Y-11390929D01*
X2581643Y-11405214D01*
X2567357Y-11390929D01*
X2581643Y-11376643D01*
X2581643Y-11405214D01*
X2738786Y-11405214D02*
X2795928Y-11405214D01*
X2824500Y-11390929D01*
X2838786Y-11376643D01*
X2867357Y-11333786D01*
X2881643Y-11276643D01*
X2881643Y-11162357D01*
X2867357Y-11133786D01*
X2853071Y-11119500D01*
X2824500Y-11105214D01*
X2767357Y-11105214D01*
X2738786Y-11119500D01*
X2724500Y-11133786D01*
X2710214Y-11162357D01*
X2710214Y-11233786D01*
X2724500Y-11262357D01*
X2738786Y-11276643D01*
X2767357Y-11290929D01*
X2824500Y-11290929D01*
X2853071Y-11276643D01*
X2867357Y-11262357D01*
X2881643Y-11233786D01*
X3067357Y-11105214D02*
X3095928Y-11105214D01*
X3124500Y-11119500D01*
X3138786Y-11133786D01*
X3153071Y-11162357D01*
X3167357Y-11219500D01*
X3167357Y-11290929D01*
X3153071Y-11348071D01*
X3138786Y-11376643D01*
X3124500Y-11390929D01*
X3095928Y-11405214D01*
X3067357Y-11405214D01*
X3038786Y-11390929D01*
X3024500Y-11376643D01*
X3010214Y-11348071D01*
X2995928Y-11290929D01*
X2995928Y-11219500D01*
X3010214Y-11162357D01*
X3024500Y-11133786D01*
X3038786Y-11119500D01*
X3067357Y-11105214D01*
X3295928Y-11405214D02*
X3295928Y-11205214D01*
X3295928Y-11233786D02*
X3310214Y-11219500D01*
X3338786Y-11205214D01*
X3381643Y-11205214D01*
X3410214Y-11219500D01*
X3424500Y-11248071D01*
X3424500Y-11405214D01*
X3424500Y-11248071D02*
X3438786Y-11219500D01*
X3467357Y-11205214D01*
X3510214Y-11205214D01*
X3538786Y-11219500D01*
X3553071Y-11248071D01*
X3553071Y-11405214D01*
X3695928Y-11405214D02*
X3695928Y-11205214D01*
X3695928Y-11233786D02*
X3710214Y-11219500D01*
X3738786Y-11205214D01*
X3781643Y-11205214D01*
X3810214Y-11219500D01*
X3824500Y-11248071D01*
X3824500Y-11405214D01*
X3824500Y-11248071D02*
X3838786Y-11219500D01*
X3867357Y-11205214D01*
X3910214Y-11205214D01*
X3938786Y-11219500D01*
X3953071Y-11248071D01*
X3953071Y-11405214D01*
X4538786Y-11090929D02*
X4281643Y-11476643D01*
X4924500Y-11105214D02*
X4953071Y-11105214D01*
X4981643Y-11119500D01*
X4995928Y-11133786D01*
X5010214Y-11162357D01*
X5024500Y-11219500D01*
X5024500Y-11290929D01*
X5010214Y-11348071D01*
X4995928Y-11376643D01*
X4981643Y-11390929D01*
X4953071Y-11405214D01*
X4924500Y-11405214D01*
X4895928Y-11390929D01*
X4881643Y-11376643D01*
X4867357Y-11348071D01*
X4853071Y-11290929D01*
X4853071Y-11219500D01*
X4867357Y-11162357D01*
X4881643Y-11133786D01*
X4895928Y-11119500D01*
X4924500Y-11105214D01*
X5153071Y-11376643D02*
X5167357Y-11390929D01*
X5153071Y-11405214D01*
X5138786Y-11390929D01*
X5153071Y-11376643D01*
X5153071Y-11405214D01*
X5353071Y-11105214D02*
X5381643Y-11105214D01*
X5410214Y-11119500D01*
X5424500Y-11133786D01*
X5438786Y-11162357D01*
X5453071Y-11219500D01*
X5453071Y-11290929D01*
X5438786Y-11348071D01*
X5424500Y-11376643D01*
X5410214Y-11390929D01*
X5381643Y-11405214D01*
X5353071Y-11405214D01*
X5324500Y-11390929D01*
X5310214Y-11376643D01*
X5295928Y-11348071D01*
X5281643Y-11290929D01*
X5281643Y-11219500D01*
X5295928Y-11162357D01*
X5310214Y-11133786D01*
X5324500Y-11119500D01*
X5353071Y-11105214D01*
X5553071Y-11105214D02*
X5738785Y-11105214D01*
X5638785Y-11219500D01*
X5681643Y-11219500D01*
X5710214Y-11233786D01*
X5724500Y-11248071D01*
X5738785Y-11276643D01*
X5738785Y-11348071D01*
X5724500Y-11376643D01*
X5710214Y-11390929D01*
X5681643Y-11405214D01*
X5595928Y-11405214D01*
X5567357Y-11390929D01*
X5553071Y-11376643D01*
X6010214Y-11105214D02*
X5867357Y-11105214D01*
X5853071Y-11248071D01*
X5867357Y-11233786D01*
X5895928Y-11219500D01*
X5967357Y-11219500D01*
X5995928Y-11233786D01*
X6010214Y-11248071D01*
X6024500Y-11276643D01*
X6024500Y-11348071D01*
X6010214Y-11376643D01*
X5995928Y-11390929D01*
X5967357Y-11405214D01*
X5895928Y-11405214D01*
X5867357Y-11390929D01*
X5853071Y-11376643D01*
X6138786Y-11105214D02*
X6138786Y-11162357D01*
X6253071Y-11105214D02*
X6253071Y-11162357D01*
X6695928Y-11519500D02*
X6681643Y-11505214D01*
X6653071Y-11462357D01*
X6638785Y-11433786D01*
X6624500Y-11390929D01*
X6610214Y-11319500D01*
X6610214Y-11262357D01*
X6624500Y-11190929D01*
X6638785Y-11148072D01*
X6653071Y-11119500D01*
X6681643Y-11076643D01*
X6695928Y-11062357D01*
X6938785Y-11105214D02*
X6881643Y-11105214D01*
X6853071Y-11119500D01*
X6838785Y-11133786D01*
X6810214Y-11176643D01*
X6795928Y-11233786D01*
X6795928Y-11348071D01*
X6810214Y-11376643D01*
X6824500Y-11390929D01*
X6853071Y-11405214D01*
X6910214Y-11405214D01*
X6938785Y-11390929D01*
X6953071Y-11376643D01*
X6967357Y-11348071D01*
X6967357Y-11276643D01*
X6953071Y-11248071D01*
X6938785Y-11233786D01*
X6910214Y-11219500D01*
X6853071Y-11219500D01*
X6824500Y-11233786D01*
X6810214Y-11248071D01*
X6795928Y-11276643D01*
X7324500Y-11405214D02*
X7324500Y-11105214D01*
X7453071Y-11405214D02*
X7453071Y-11248071D01*
X7438785Y-11219500D01*
X7410214Y-11205214D01*
X7367357Y-11205214D01*
X7338785Y-11219500D01*
X7324500Y-11233786D01*
X7638785Y-11405214D02*
X7610214Y-11390929D01*
X7595928Y-11376643D01*
X7581643Y-11348071D01*
X7581643Y-11262357D01*
X7595928Y-11233786D01*
X7610214Y-11219500D01*
X7638785Y-11205214D01*
X7681643Y-11205214D01*
X7710214Y-11219500D01*
X7724500Y-11233786D01*
X7738785Y-11262357D01*
X7738785Y-11348071D01*
X7724500Y-11376643D01*
X7710214Y-11390929D01*
X7681643Y-11405214D01*
X7638785Y-11405214D01*
X7910214Y-11405214D02*
X7881643Y-11390929D01*
X7867357Y-11362357D01*
X7867357Y-11105214D01*
X8138786Y-11390929D02*
X8110214Y-11405214D01*
X8053071Y-11405214D01*
X8024500Y-11390929D01*
X8010214Y-11362357D01*
X8010214Y-11248071D01*
X8024500Y-11219500D01*
X8053071Y-11205214D01*
X8110214Y-11205214D01*
X8138786Y-11219500D01*
X8153071Y-11248071D01*
X8153071Y-11276643D01*
X8010214Y-11305214D01*
X8267357Y-11390929D02*
X8295928Y-11405214D01*
X8353071Y-11405214D01*
X8381643Y-11390929D01*
X8395929Y-11362357D01*
X8395929Y-11348071D01*
X8381643Y-11319500D01*
X8353071Y-11305214D01*
X8310214Y-11305214D01*
X8281643Y-11290929D01*
X8267357Y-11262357D01*
X8267357Y-11248071D01*
X8281643Y-11219500D01*
X8310214Y-11205214D01*
X8353071Y-11205214D01*
X8381643Y-11219500D01*
X8495928Y-11519500D02*
X8510214Y-11505214D01*
X8538786Y-11462357D01*
X8553071Y-11433786D01*
X8567357Y-11390929D01*
X8581643Y-11319500D01*
X8581643Y-11262357D01*
X8567357Y-11190929D01*
X8553071Y-11148072D01*
X8538786Y-11119500D01*
X8510214Y-11076643D01*
X8495928Y-11062357D01*
X1974500Y-11615500D02*
X1974500Y-11715500D01*
X1924500Y-11665500D02*
X2024500Y-11665500D01*
X2453071Y-11801214D02*
X2281643Y-11801214D01*
X2367357Y-11801214D02*
X2367357Y-11501214D01*
X2338786Y-11544071D01*
X2310214Y-11572643D01*
X2281643Y-11586929D01*
X2581643Y-11772643D02*
X2595929Y-11786929D01*
X2581643Y-11801214D01*
X2567357Y-11786929D01*
X2581643Y-11772643D01*
X2581643Y-11801214D01*
X2781643Y-11501214D02*
X2810214Y-11501214D01*
X2838786Y-11515500D01*
X2853071Y-11529786D01*
X2867357Y-11558357D01*
X2881643Y-11615500D01*
X2881643Y-11686929D01*
X2867357Y-11744071D01*
X2853071Y-11772643D01*
X2838786Y-11786929D01*
X2810214Y-11801214D01*
X2781643Y-11801214D01*
X2753071Y-11786929D01*
X2738786Y-11772643D01*
X2724500Y-11744071D01*
X2710214Y-11686929D01*
X2710214Y-11615500D01*
X2724500Y-11558357D01*
X2738786Y-11529786D01*
X2753071Y-11515500D01*
X2781643Y-11501214D01*
X3067357Y-11501214D02*
X3095928Y-11501214D01*
X3124500Y-11515500D01*
X3138786Y-11529786D01*
X3153071Y-11558357D01*
X3167357Y-11615500D01*
X3167357Y-11686929D01*
X3153071Y-11744071D01*
X3138786Y-11772643D01*
X3124500Y-11786929D01*
X3095928Y-11801214D01*
X3067357Y-11801214D01*
X3038786Y-11786929D01*
X3024500Y-11772643D01*
X3010214Y-11744071D01*
X2995928Y-11686929D01*
X2995928Y-11615500D01*
X3010214Y-11558357D01*
X3024500Y-11529786D01*
X3038786Y-11515500D01*
X3067357Y-11501214D01*
X3295928Y-11801214D02*
X3295928Y-11601214D01*
X3295928Y-11629786D02*
X3310214Y-11615500D01*
X3338786Y-11601214D01*
X3381643Y-11601214D01*
X3410214Y-11615500D01*
X3424500Y-11644071D01*
X3424500Y-11801214D01*
X3424500Y-11644071D02*
X3438786Y-11615500D01*
X3467357Y-11601214D01*
X3510214Y-11601214D01*
X3538786Y-11615500D01*
X3553071Y-11644071D01*
X3553071Y-11801214D01*
X3695928Y-11801214D02*
X3695928Y-11601214D01*
X3695928Y-11629786D02*
X3710214Y-11615500D01*
X3738786Y-11601214D01*
X3781643Y-11601214D01*
X3810214Y-11615500D01*
X3824500Y-11644071D01*
X3824500Y-11801214D01*
X3824500Y-11644071D02*
X3838786Y-11615500D01*
X3867357Y-11601214D01*
X3910214Y-11601214D01*
X3938786Y-11615500D01*
X3953071Y-11644071D01*
X3953071Y-11801214D01*
X4538786Y-11486929D02*
X4281643Y-11872643D01*
X4924500Y-11501214D02*
X4953071Y-11501214D01*
X4981643Y-11515500D01*
X4995928Y-11529786D01*
X5010214Y-11558357D01*
X5024500Y-11615500D01*
X5024500Y-11686929D01*
X5010214Y-11744071D01*
X4995928Y-11772643D01*
X4981643Y-11786929D01*
X4953071Y-11801214D01*
X4924500Y-11801214D01*
X4895928Y-11786929D01*
X4881643Y-11772643D01*
X4867357Y-11744071D01*
X4853071Y-11686929D01*
X4853071Y-11615500D01*
X4867357Y-11558357D01*
X4881643Y-11529786D01*
X4895928Y-11515500D01*
X4924500Y-11501214D01*
X5153071Y-11772643D02*
X5167357Y-11786929D01*
X5153071Y-11801214D01*
X5138786Y-11786929D01*
X5153071Y-11772643D01*
X5153071Y-11801214D01*
X5353071Y-11501214D02*
X5381643Y-11501214D01*
X5410214Y-11515500D01*
X5424500Y-11529786D01*
X5438786Y-11558357D01*
X5453071Y-11615500D01*
X5453071Y-11686929D01*
X5438786Y-11744071D01*
X5424500Y-11772643D01*
X5410214Y-11786929D01*
X5381643Y-11801214D01*
X5353071Y-11801214D01*
X5324500Y-11786929D01*
X5310214Y-11772643D01*
X5295928Y-11744071D01*
X5281643Y-11686929D01*
X5281643Y-11615500D01*
X5295928Y-11558357D01*
X5310214Y-11529786D01*
X5324500Y-11515500D01*
X5353071Y-11501214D01*
X5553071Y-11501214D02*
X5738785Y-11501214D01*
X5638785Y-11615500D01*
X5681643Y-11615500D01*
X5710214Y-11629786D01*
X5724500Y-11644071D01*
X5738785Y-11672643D01*
X5738785Y-11744071D01*
X5724500Y-11772643D01*
X5710214Y-11786929D01*
X5681643Y-11801214D01*
X5595928Y-11801214D01*
X5567357Y-11786929D01*
X5553071Y-11772643D01*
X5881643Y-11801214D02*
X5938785Y-11801214D01*
X5967357Y-11786929D01*
X5981643Y-11772643D01*
X6010214Y-11729786D01*
X6024500Y-11672643D01*
X6024500Y-11558357D01*
X6010214Y-11529786D01*
X5995928Y-11515500D01*
X5967357Y-11501214D01*
X5910214Y-11501214D01*
X5881643Y-11515500D01*
X5867357Y-11529786D01*
X5853071Y-11558357D01*
X5853071Y-11629786D01*
X5867357Y-11658357D01*
X5881643Y-11672643D01*
X5910214Y-11686929D01*
X5967357Y-11686929D01*
X5995928Y-11672643D01*
X6010214Y-11658357D01*
X6024500Y-11629786D01*
X6138786Y-11501214D02*
X6138786Y-11558357D01*
X6253071Y-11501214D02*
X6253071Y-11558357D01*
X6695928Y-11915500D02*
X6681643Y-11901214D01*
X6653071Y-11858357D01*
X6638785Y-11829786D01*
X6624500Y-11786929D01*
X6610214Y-11715500D01*
X6610214Y-11658357D01*
X6624500Y-11586929D01*
X6638785Y-11544071D01*
X6653071Y-11515500D01*
X6681643Y-11472643D01*
X6695928Y-11458357D01*
X6795928Y-11529786D02*
X6810214Y-11515500D01*
X6838785Y-11501214D01*
X6910214Y-11501214D01*
X6938785Y-11515500D01*
X6953071Y-11529786D01*
X6967357Y-11558357D01*
X6967357Y-11586929D01*
X6953071Y-11629786D01*
X6781643Y-11801214D01*
X6967357Y-11801214D01*
X7253071Y-11801214D02*
X7081643Y-11801214D01*
X7167357Y-11801214D02*
X7167357Y-11501214D01*
X7138785Y-11544071D01*
X7110214Y-11572643D01*
X7081643Y-11586929D01*
X7610214Y-11801214D02*
X7610214Y-11501214D01*
X7738785Y-11801214D02*
X7738785Y-11644071D01*
X7724500Y-11615500D01*
X7695928Y-11601214D01*
X7653071Y-11601214D01*
X7624500Y-11615500D01*
X7610214Y-11629786D01*
X7924500Y-11801214D02*
X7895928Y-11786929D01*
X7881643Y-11772643D01*
X7867357Y-11744071D01*
X7867357Y-11658357D01*
X7881643Y-11629786D01*
X7895928Y-11615500D01*
X7924500Y-11601214D01*
X7967357Y-11601214D01*
X7995928Y-11615500D01*
X8010214Y-11629786D01*
X8024500Y-11658357D01*
X8024500Y-11744071D01*
X8010214Y-11772643D01*
X7995928Y-11786929D01*
X7967357Y-11801214D01*
X7924500Y-11801214D01*
X8195928Y-11801214D02*
X8167357Y-11786929D01*
X8153071Y-11758357D01*
X8153071Y-11501214D01*
X8424500Y-11786929D02*
X8395929Y-11801214D01*
X8338786Y-11801214D01*
X8310214Y-11786929D01*
X8295928Y-11758357D01*
X8295928Y-11644071D01*
X8310214Y-11615500D01*
X8338786Y-11601214D01*
X8395929Y-11601214D01*
X8424500Y-11615500D01*
X8438786Y-11644071D01*
X8438786Y-11672643D01*
X8295928Y-11701214D01*
X8553071Y-11786929D02*
X8581643Y-11801214D01*
X8638786Y-11801214D01*
X8667357Y-11786929D01*
X8681643Y-11758357D01*
X8681643Y-11744071D01*
X8667357Y-11715500D01*
X8638786Y-11701214D01*
X8595929Y-11701214D01*
X8567357Y-11686929D01*
X8553071Y-11658357D01*
X8553071Y-11644071D01*
X8567357Y-11615500D01*
X8595929Y-11601214D01*
X8638786Y-11601214D01*
X8667357Y-11615500D01*
X8781643Y-11915500D02*
X8795929Y-11901214D01*
X8824500Y-11858357D01*
X8838786Y-11829786D01*
X8853071Y-11786929D01*
X8867357Y-11715500D01*
X8867357Y-11658357D01*
X8853071Y-11586929D01*
X8838786Y-11544071D01*
X8824500Y-11515500D01*
X8795929Y-11472643D01*
X8781643Y-11458357D01*
M02*
