M48
;DRILL file {KiCad 4.0.7} date Mon Sep 25 09:44:30 2017
;FORMAT={-:-/ absolute / inch / decimal}
FMAT,2
INCH,TZ
T1C0.031
T2C0.035
T3C0.039
%
G90
G05
M72
T1
X0.9Y-3.
X0.9Y-3.5
X1.05Y-1.475
X1.05Y-1.675
X1.05Y-1.875
X1.05Y-2.075
X1.05Y-2.275
X1.05Y-2.475
X1.05Y-2.675
X1.05Y-2.875
X1.05Y-3.075
X1.05Y-3.275
X1.55Y-1.475
X1.55Y-1.675
X1.55Y-1.875
X1.55Y-2.075
X1.55Y-2.275
X1.55Y-2.475
X1.55Y-2.675
X1.55Y-2.875
X1.55Y-3.075
X1.55Y-3.275
X2.025Y-1.95
X2.025Y-2.45
X2.325Y-1.225
X2.325Y-1.725
X2.325Y-2.175
X2.325Y-2.675
X2.5Y-1.55
X2.525Y-2.5
X2.525Y-3.
X2.6Y-1.55
X2.6Y-1.8
X2.6Y-2.3
X2.7Y-1.55
X2.75Y-2.05
X2.75Y-2.1484
X2.875Y-1.75
X2.875Y-1.85
X2.875Y-1.95
X2.875Y-2.05
X2.875Y-2.15
X2.875Y-2.25
X2.875Y-2.35
X2.9Y-1.05
X2.9Y-1.55
X3.05Y-1.55
X3.175Y-1.75
X3.175Y-1.85
X3.175Y-1.95
X3.175Y-2.05
X3.175Y-2.15
X3.175Y-2.25
X3.175Y-2.35
X3.225Y-0.8016
X3.225Y-0.9
X3.3Y-2.525
X3.3Y-3.025
X3.375Y-2.15
X3.4Y-1.25
X3.4Y-1.75
X3.5Y-0.875
X3.5Y-0.9734
X3.55Y-1.55
X3.675Y-2.75
X3.675Y-3.25
X3.875Y-2.15
X3.9Y-1.25
X3.9Y-1.75
X4.375Y-1.4
X4.375Y-1.9
T2
X0.9Y-3.75
X1.Y-3.75
X2.Y-3.75
X2.1Y-3.75
X3.925Y-0.775
X3.925Y-1.075
T3
X1.05Y-1.2
X1.15Y-1.2
X2.325Y-1.85
X2.325Y-1.95
X2.325Y-2.05
X2.825Y-0.8
X2.8919Y-0.8
X2.9589Y-0.8
X3.0258Y-0.8
X3.0927Y-0.8
X3.475Y-2.525
X3.575Y-2.525
X3.625Y-0.875
X3.675Y-2.525
X3.725Y-0.875
X3.925Y-1.55
X4.025Y-1.55
X4.025Y-1.9
X4.125Y-1.55
X4.125Y-1.9
X4.225Y-1.9
T0
M30
